<?xml version="1.0" encoding="UTF-8"?>
<svg width="44px" height="54px" version="1.1" xmlns="http://www.w3.org/2000/svg"
    xmlns:xlink="http://www.w3.org/1999/xlink">
    <g id="mark" transform="scale(1.1,1.1) translate(2.2,1.5) matrix(1 0 0 1 0 1) ">
        <path stroke="#f7fafc" stroke-width="1.7"
            d="M35.3871616,17.6936615 C35.3871616,8.00244874 27.5959477,0.131129962 17.9353741,0.00155940993 C8.18029885,-0.128749436 0.00701796324,7.92492785 4.17266428e-06,17.6811106 C-0.00331814919,22.5719375 1.97752397,27.0002234 5.18245713,30.2051565 L17.6935829,42.7738692 L30.2050778,30.2051565 C33.4070578,27.0031765 35.3871616,22.5796896 35.3871616,17.6936615"
            id="Fill-1" fill="#FEBB1B" />
        <g transform="matrix(0.18 0 0 0.18 -9 12)">
            <g transform="matrix(0.17 0 -0 -0.17 169 10) rotate(-180 65 68)">
                <path fill="#383838"
            d="M367.9 329.8c-4.6 5.3-9.8 10.1-15.9 13.7v22.9c66.5 9.3 112 28.1 112 49.7 0 30.9-93.1 56-208 56S48 446.9 48 416c0-21.6 45.5-40.3 112-49.7v-22.9c-6.1-3.6-11.3-8.4-15.9-13.7C58.9 345.3 0 378.1 0 416c0 53 114.6 96 256 96s256-43 256-96c0-38-58.9-70.7-144.1-86.2zM256 128c35.4 0 64-28.7 64-64S291.4 0 256 0s-64 28.7-64 64 28.7 64 64 64zm-64 192v96c0 17.7 14.3 32 32 32h64c17.7 0 32-14.3 32-32v-96c17.7 0 32-14.3 32-32v-96c0-26.5-21.5-48-48-48h-11.8c-11.1 5-23.3 8-36.2 8s-25.1-3-36.2-8H208c-26.5 0-48 21.5-48 48v96c0 17.7 14.3 32 32 32z">
                </path>
            </g>
        </g>    

    </g>

</svg>