<?xml version="1.0" encoding="UTF-8"?>
<svg width="44px" height="54px" version="1.1" xmlns="http://www.w3.org/2000/svg"
    xmlns:xlink="http://www.w3.org/1999/xlink">
    <g id="mark" transform="scale(1.1,1.1) translate(2.2,1.5) matrix(1 0 0 1 0 1) ">
        <path stroke="#f7fafc" stroke-width="1"
            d="M35.3871616,17.6936615 C35.3871616,8.00244874 27.5959477,0.131129962 17.9353741,0.00155940993 C8.18029885,-0.128749436 0.00701796324,7.92492785 4.17266428e-06,17.6811106 C-0.00331814919,22.5719375 1.97752397,27.0002234 5.18245713,30.2051565 L17.6935829,42.7738692 L30.2050778,30.2051565 C33.4070578,27.0031765 35.3871616,22.5796896 35.3871616,17.6936615"
            id="Fill-1" fill="#adb5bd" />

        <g transform="matrix(0.18 0 0 0.18 -9 12)">
            <g transform="matrix(0.17 0 -0 -0.17 169 10) rotate(-180 65 68)">
                <path fill-opacity="0.9" fill="#383838"
                    d="M488 128h-8V80c0-44.8-99.2-80-224-80S32 35.2 32 80v48h-8c-13.25 0-24 10.74-24 24v80c0 13.25 10.75 24 24 24h8v160c0 17.67 14.33 32 32 32v32c0 17.67 14.33 32 32 32h32c17.67 0 32-14.33 32-32v-32h192v32c0 17.67 14.33 32 32 32h32c17.67 0 32-14.33 32-32v-32h6.4c16 0 25.6-12.8 25.6-25.6V256h8c13.25 0 24-10.75 24-24v-80c0-13.26-10.75-24-24-24zM160 72c0-4.42 3.58-8 8-8h176c4.42 0 8 3.58 8 8v16c0 4.42-3.58 8-8 8H168c-4.42 0-8-3.58-8-8V72zm-48 328c-17.67 0-32-14.33-32-32s14.33-32 32-32 32 14.33 32 32-14.33 32-32 32zm128-112H128c-17.67 0-32-14.33-32-32v-96c0-17.67 14.33-32 32-32h112v160zm32 0V128h112c17.67 0 32 14.33 32 32v96c0 17.67-14.33 32-32 32H272zm128 112c-17.67 0-32-14.33-32-32s14.33-32 32-32 32 14.33 32 32-14.33 32-32 32z">
                </path>
            </g>
        </g>

    </g>

</svg>