<?xml version="1.0" encoding="UTF-8"?>

<svg width="44px" height="54px" version="1.1" xmlns="http://www.w3.org/2000/svg"
    xmlns:xlink="http://www.w3.org/1999/xlink">
    <g id="mark" transform="scale(1.1,1.1) translate(2.2,1.5) matrix(1 0 0 1 0 1) ">
        <path stroke="#f7fafc" stroke-width="1.0"
            d="M35.3871616,17.6936615 C35.3871616,8.00244874 27.5959477,0.131129962 17.9353741,0.00155940993 C8.18029885,-0.128749436 0.00701796324,7.92492785 4.17266428e-06,17.6811106 C-0.00331814919,22.5719375 1.97752397,27.0002234 5.18245713,30.2051565 L17.6935829,42.7738692 L30.2050778,30.2051565 C33.4070578,27.0031765 35.3871616,22.5796896 35.3871616,17.6936615"
            id="Fill-1" fill="#FEBB1B" />

        <g transform="matrix(0.18 0 0 0.18 -9 12)">
            <g transform="matrix(0.17 0 -0 -0.17 160 10) rotate(-180 65 68) translate(-30,0)">
                <path fill="#383838"

                    d="M436 480h-20V24c0-13.3-10.7-24-24-24H56C42.7 0 32 10.7 32 24v456H12c-6.6 0-12 5.4-12 12v20h448v-20c0-6.6-5.4-12-12-12zM128 76c0-6.6 5.4-12 12-12h40c6.6 0 12 5.4 12 12v40c0 6.6-5.4 12-12 12h-40c-6.6 0-12-5.4-12-12V76zm0 96c0-6.6 5.4-12 12-12h40c6.6 0 12 5.4 12 12v40c0 6.6-5.4 12-12 12h-40c-6.6 0-12-5.4-12-12v-40zm52 148h-40c-6.6 0-12-5.4-12-12v-40c0-6.6 5.4-12 12-12h40c6.6 0 12 5.4 12 12v40c0 6.6-5.4 12-12 12zm76 160h-64v-84c0-6.6 5.4-12 12-12h40c6.6 0 12 5.4 12 12v84zm64-172c0 6.6-5.4 12-12 12h-40c-6.6 0-12-5.4-12-12v-40c0-6.6 5.4-12 12-12h40c6.6 0 12 5.4 12 12v40zm0-96c0 6.6-5.4 12-12 12h-40c-6.6 0-12-5.4-12-12v-40c0-6.6 5.4-12 12-12h40c6.6 0 12 5.4 12 12v40zm0-96c0 6.6-5.4 12-12 12h-40c-6.6 0-12-5.4-12-12V76c0-6.6 5.4-12 12-12h40c6.6 0 12 5.4 12 12v40z" />
            </g>
        </g>

    </g>

</svg>