<?xml version="1.0" encoding="UTF-8"?>
<svg width="44px" height="54px" version="1.1" xmlns="http://www.w3.org/2000/svg"
    xmlns:xlink="http://www.w3.org/1999/xlink">
    <g id="mark" transform="scale(1.1,1.1) translate(2.2,1.5) matrix(1 0 0 1 0 1) ">
        <path stroke="#f7fafc" stroke-width="1"
            d="M35.3871616,17.6936615 C35.3871616,8.00244874 27.5959477,0.131129962 17.9353741,0.00155940993 C8.18029885,-0.128749436 0.00701796324,7.92492785 4.17266428e-06,17.6811106 C-0.00331814919,22.5719375 1.97752397,27.0002234 5.18245713,30.2051565 L17.6935829,42.7738692 L30.2050778,30.2051565 C33.4070578,27.0031765 35.3871616,22.5796896 35.3871616,17.6936615"
            id="Fill-1" fill="#FEBB1B" />
        <g transform="matrix(0.18 0 0 0.18 -9 12)">
            <g transform="matrix(0.17 0 -0 -0.17 164 10) rotate(-180 65 68)">
                <path fill="#383838"
                    d="M224 256c70.7 0 128-57.3 128-128S294.7 0 224 0 96 57.3 96 128s57.3 128 128 128zm95.8 32.6L272 480l-32-136 32-56h-96l32 56-32 136-47.8-191.4C56.9 292 0 350.3 0 422.4V464c0 26.5 21.5 48 48 48h352c26.5 0 48-21.5 48-48v-41.6c0-72.1-56.9-130.4-128.2-133.8z">
                </path>
            </g>
        </g>

    </g>

</svg>